# xmcd
# 
# Track frame offsets:
#     150
#     14885
#     32600
#     52115
#     67850
# 
# Disc length: 1095
# 
# Revision: 1
# Processed by: cddbd v1.5.2PL0 Copyright (c) Steve Scherf et al.
# Submitted via: fre:ac v1.0.27
# 
DISCID=3f044505
DTITLE=Ida Mae - IDA MAE EP.1
DYEAR=2018
DGENRE=Blues
TTITLE0=Reaching
TTITLE1=If You Don't Love Me
TTITLE2=Sick In Love
TTITLE3=Sweet Abandon
TTITLE4=Feel Them Getting Closer (Live)
EXTD=
EXTT0=
EXTT1=
EXTT2=
EXTT3=
EXTT4=
PLAYORDER=
